#tb 0: 1/25
0,          0,          0,        1,  8294400, 0x8fe65c3c
0,          1,          1,        1,  8294400, 0x1610cf70
0,          2,          2,        1,  8294400, 0x1d802baa
